<svg xmlns="http://www.w3.org/2000/svg" viewBox="0 0 1100 470" width="1100" height="470">
<rect width="1100" height="470" fill="#ffffff"/>
<defs><marker id="ar" markerWidth="10" markerHeight="8" refX="9" refY="4" orient="auto"><path d="M0,0 L10,4 L0,8 z" fill="#1a1a1a"/></marker></defs>
<text x="550.0" y="34" text-anchor="middle" font-size="21" font-weight="bold" fill="#1a1a1a" font-family="DejaVu Sans, Segoe UI, Arial, sans-serif">Часові діаграми логічних елементів для однакових входів</text>
<text x="132" y="101" text-anchor="end" font-size="17" font-weight="bold" fill="#204a80" font-family="DejaVu Sans, Segoe UI, Arial, sans-serif">A</text>
<line x1="150" y1="101" x2="990" y2="101" stroke="#dddddd" stroke-width="1"/>
<line x1="150" y1="101" x2="150" y2="101" stroke="#cccccc" stroke-width="1"/>
<line x1="150" y1="101" x2="255" y2="101" stroke="#1a1a1a" stroke-width="2.5"/>
<line x1="255" y1="101" x2="360" y2="101" stroke="#1a1a1a" stroke-width="2.5"/>
<line x1="360" y1="101" x2="360" y2="69" stroke="#1a1a1a" stroke-width="2.5"/>
<line x1="360" y1="69" x2="465" y2="69" stroke="#1a1a1a" stroke-width="2.5"/>
<line x1="465" y1="69" x2="570" y2="69" stroke="#1a1a1a" stroke-width="2.5"/>
<line x1="570" y1="69" x2="570" y2="101" stroke="#1a1a1a" stroke-width="2.5"/>
<line x1="570" y1="101" x2="675" y2="101" stroke="#1a1a1a" stroke-width="2.5"/>
<line x1="675" y1="101" x2="675" y2="69" stroke="#1a1a1a" stroke-width="2.5"/>
<line x1="675" y1="69" x2="780" y2="69" stroke="#1a1a1a" stroke-width="2.5"/>
<line x1="780" y1="69" x2="885" y2="69" stroke="#1a1a1a" stroke-width="2.5"/>
<line x1="885" y1="69" x2="885" y2="101" stroke="#1a1a1a" stroke-width="2.5"/>
<line x1="885" y1="101" x2="990" y2="101" stroke="#1a1a1a" stroke-width="2.5"/>
<text x="132" y="164" text-anchor="end" font-size="17" font-weight="bold" fill="#204a80" font-family="DejaVu Sans, Segoe UI, Arial, sans-serif">B</text>
<line x1="150" y1="164" x2="990" y2="164" stroke="#dddddd" stroke-width="1"/>
<line x1="150" y1="164" x2="150" y2="164" stroke="#cccccc" stroke-width="1"/>
<line x1="150" y1="164" x2="255" y2="164" stroke="#1a1a1a" stroke-width="2.5"/>
<line x1="255" y1="164" x2="255" y2="132" stroke="#1a1a1a" stroke-width="2.5"/>
<line x1="255" y1="132" x2="360" y2="132" stroke="#1a1a1a" stroke-width="2.5"/>
<line x1="360" y1="132" x2="360" y2="164" stroke="#1a1a1a" stroke-width="2.5"/>
<line x1="360" y1="164" x2="465" y2="164" stroke="#1a1a1a" stroke-width="2.5"/>
<line x1="465" y1="164" x2="465" y2="132" stroke="#1a1a1a" stroke-width="2.5"/>
<line x1="465" y1="132" x2="570" y2="132" stroke="#1a1a1a" stroke-width="2.5"/>
<line x1="570" y1="132" x2="675" y2="132" stroke="#1a1a1a" stroke-width="2.5"/>
<line x1="675" y1="132" x2="780" y2="132" stroke="#1a1a1a" stroke-width="2.5"/>
<line x1="780" y1="132" x2="780" y2="164" stroke="#1a1a1a" stroke-width="2.5"/>
<line x1="780" y1="164" x2="885" y2="164" stroke="#1a1a1a" stroke-width="2.5"/>
<line x1="885" y1="164" x2="990" y2="164" stroke="#1a1a1a" stroke-width="2.5"/>
<text x="132" y="227" text-anchor="end" font-size="17" font-weight="bold" fill="#204a80" font-family="DejaVu Sans, Segoe UI, Arial, sans-serif">A · B</text>
<line x1="150" y1="227" x2="990" y2="227" stroke="#dddddd" stroke-width="1"/>
<line x1="150" y1="227" x2="150" y2="227" stroke="#cccccc" stroke-width="1"/>
<line x1="150" y1="227" x2="255" y2="227" stroke="#1a1a1a" stroke-width="2.5"/>
<line x1="255" y1="227" x2="360" y2="227" stroke="#1a1a1a" stroke-width="2.5"/>
<line x1="360" y1="227" x2="465" y2="227" stroke="#1a1a1a" stroke-width="2.5"/>
<line x1="465" y1="227" x2="465" y2="195" stroke="#1a1a1a" stroke-width="2.5"/>
<line x1="465" y1="195" x2="570" y2="195" stroke="#1a1a1a" stroke-width="2.5"/>
<line x1="570" y1="195" x2="570" y2="227" stroke="#1a1a1a" stroke-width="2.5"/>
<line x1="570" y1="227" x2="675" y2="227" stroke="#1a1a1a" stroke-width="2.5"/>
<line x1="675" y1="227" x2="675" y2="195" stroke="#1a1a1a" stroke-width="2.5"/>
<line x1="675" y1="195" x2="780" y2="195" stroke="#1a1a1a" stroke-width="2.5"/>
<line x1="780" y1="195" x2="780" y2="227" stroke="#1a1a1a" stroke-width="2.5"/>
<line x1="780" y1="227" x2="885" y2="227" stroke="#1a1a1a" stroke-width="2.5"/>
<line x1="885" y1="227" x2="990" y2="227" stroke="#1a1a1a" stroke-width="2.5"/>
<text x="132" y="290" text-anchor="end" font-size="17" font-weight="bold" fill="#204a80" font-family="DejaVu Sans, Segoe UI, Arial, sans-serif">A + B</text>
<line x1="150" y1="290" x2="990" y2="290" stroke="#dddddd" stroke-width="1"/>
<line x1="150" y1="290" x2="150" y2="290" stroke="#cccccc" stroke-width="1"/>
<line x1="150" y1="290" x2="255" y2="290" stroke="#1a1a1a" stroke-width="2.5"/>
<line x1="255" y1="290" x2="255" y2="258" stroke="#1a1a1a" stroke-width="2.5"/>
<line x1="255" y1="258" x2="360" y2="258" stroke="#1a1a1a" stroke-width="2.5"/>
<line x1="360" y1="258" x2="465" y2="258" stroke="#1a1a1a" stroke-width="2.5"/>
<line x1="465" y1="258" x2="570" y2="258" stroke="#1a1a1a" stroke-width="2.5"/>
<line x1="570" y1="258" x2="675" y2="258" stroke="#1a1a1a" stroke-width="2.5"/>
<line x1="675" y1="258" x2="780" y2="258" stroke="#1a1a1a" stroke-width="2.5"/>
<line x1="780" y1="258" x2="885" y2="258" stroke="#1a1a1a" stroke-width="2.5"/>
<line x1="885" y1="258" x2="885" y2="290" stroke="#1a1a1a" stroke-width="2.5"/>
<line x1="885" y1="290" x2="990" y2="290" stroke="#1a1a1a" stroke-width="2.5"/>
<text x="132" y="353" text-anchor="end" font-size="17" font-weight="bold" fill="#204a80" font-family="DejaVu Sans, Segoe UI, Arial, sans-serif">A ⊕ B</text>
<line x1="150" y1="353" x2="990" y2="353" stroke="#dddddd" stroke-width="1"/>
<line x1="150" y1="353" x2="150" y2="353" stroke="#cccccc" stroke-width="1"/>
<line x1="150" y1="353" x2="255" y2="353" stroke="#1a1a1a" stroke-width="2.5"/>
<line x1="255" y1="353" x2="255" y2="321" stroke="#1a1a1a" stroke-width="2.5"/>
<line x1="255" y1="321" x2="360" y2="321" stroke="#1a1a1a" stroke-width="2.5"/>
<line x1="360" y1="321" x2="465" y2="321" stroke="#1a1a1a" stroke-width="2.5"/>
<line x1="465" y1="321" x2="465" y2="353" stroke="#1a1a1a" stroke-width="2.5"/>
<line x1="465" y1="353" x2="570" y2="353" stroke="#1a1a1a" stroke-width="2.5"/>
<line x1="570" y1="353" x2="570" y2="321" stroke="#1a1a1a" stroke-width="2.5"/>
<line x1="570" y1="321" x2="675" y2="321" stroke="#1a1a1a" stroke-width="2.5"/>
<line x1="675" y1="321" x2="675" y2="353" stroke="#1a1a1a" stroke-width="2.5"/>
<line x1="675" y1="353" x2="780" y2="353" stroke="#1a1a1a" stroke-width="2.5"/>
<line x1="780" y1="353" x2="780" y2="321" stroke="#1a1a1a" stroke-width="2.5"/>
<line x1="780" y1="321" x2="885" y2="321" stroke="#1a1a1a" stroke-width="2.5"/>
<line x1="885" y1="321" x2="885" y2="353" stroke="#1a1a1a" stroke-width="2.5"/>
<line x1="885" y1="353" x2="990" y2="353" stroke="#1a1a1a" stroke-width="2.5"/>
<text x="132" y="416" text-anchor="end" font-size="17" font-weight="bold" fill="#204a80" font-family="DejaVu Sans, Segoe UI, Arial, sans-serif">NAND</text>
<line x1="150" y1="416" x2="990" y2="416" stroke="#dddddd" stroke-width="1"/>
<line x1="150" y1="384" x2="150" y2="416" stroke="#cccccc" stroke-width="1"/>
<line x1="150" y1="384" x2="255" y2="384" stroke="#1a1a1a" stroke-width="2.5"/>
<line x1="255" y1="384" x2="360" y2="384" stroke="#1a1a1a" stroke-width="2.5"/>
<line x1="360" y1="384" x2="465" y2="384" stroke="#1a1a1a" stroke-width="2.5"/>
<line x1="465" y1="384" x2="465" y2="416" stroke="#1a1a1a" stroke-width="2.5"/>
<line x1="465" y1="416" x2="570" y2="416" stroke="#1a1a1a" stroke-width="2.5"/>
<line x1="570" y1="416" x2="570" y2="384" stroke="#1a1a1a" stroke-width="2.5"/>
<line x1="570" y1="384" x2="675" y2="384" stroke="#1a1a1a" stroke-width="2.5"/>
<line x1="675" y1="384" x2="675" y2="416" stroke="#1a1a1a" stroke-width="2.5"/>
<line x1="675" y1="416" x2="780" y2="416" stroke="#1a1a1a" stroke-width="2.5"/>
<line x1="780" y1="416" x2="780" y2="384" stroke="#1a1a1a" stroke-width="2.5"/>
<line x1="780" y1="384" x2="885" y2="384" stroke="#1a1a1a" stroke-width="2.5"/>
<line x1="885" y1="384" x2="990" y2="384" stroke="#1a1a1a" stroke-width="2.5"/>
<line x1="150" y1="65" x2="150" y2="453" stroke="#eeeeee" stroke-width="1"/>
<text x="202.5" y="57" text-anchor="middle" font-size="13" font-weight="normal" fill="#888888" font-family="DejaVu Sans, Segoe UI, Arial, sans-serif">t1</text>
<line x1="255" y1="65" x2="255" y2="453" stroke="#eeeeee" stroke-width="1"/>
<text x="307.5" y="57" text-anchor="middle" font-size="13" font-weight="normal" fill="#888888" font-family="DejaVu Sans, Segoe UI, Arial, sans-serif">t2</text>
<line x1="360" y1="65" x2="360" y2="453" stroke="#eeeeee" stroke-width="1"/>
<text x="412.5" y="57" text-anchor="middle" font-size="13" font-weight="normal" fill="#888888" font-family="DejaVu Sans, Segoe UI, Arial, sans-serif">t3</text>
<line x1="465" y1="65" x2="465" y2="453" stroke="#eeeeee" stroke-width="1"/>
<text x="517.5" y="57" text-anchor="middle" font-size="13" font-weight="normal" fill="#888888" font-family="DejaVu Sans, Segoe UI, Arial, sans-serif">t4</text>
<line x1="570" y1="65" x2="570" y2="453" stroke="#eeeeee" stroke-width="1"/>
<text x="622.5" y="57" text-anchor="middle" font-size="13" font-weight="normal" fill="#888888" font-family="DejaVu Sans, Segoe UI, Arial, sans-serif">t5</text>
<line x1="675" y1="65" x2="675" y2="453" stroke="#eeeeee" stroke-width="1"/>
<text x="727.5" y="57" text-anchor="middle" font-size="13" font-weight="normal" fill="#888888" font-family="DejaVu Sans, Segoe UI, Arial, sans-serif">t6</text>
<line x1="780" y1="65" x2="780" y2="453" stroke="#eeeeee" stroke-width="1"/>
<text x="832.5" y="57" text-anchor="middle" font-size="13" font-weight="normal" fill="#888888" font-family="DejaVu Sans, Segoe UI, Arial, sans-serif">t7</text>
<line x1="885" y1="65" x2="885" y2="453" stroke="#eeeeee" stroke-width="1"/>
<text x="937.5" y="57" text-anchor="middle" font-size="13" font-weight="normal" fill="#888888" font-family="DejaVu Sans, Segoe UI, Arial, sans-serif">t8</text>
<text x="550.0" y="458" text-anchor="middle" font-size="15" font-weight="normal" fill="#444444" font-family="DejaVu Sans, Segoe UI, Arial, sans-serif">Той самий набір входів дає різні виходи – саме це й описує таблиця істинності</text>
</svg>