<svg xmlns="http://www.w3.org/2000/svg" viewBox="0 0 900 386" width="900" height="386"><rect width="100%" height="100%" fill="#ffffff"/><text x="450" y="34" font-family="DejaVu Sans, Arial, sans-serif" font-size="17" fill="#232120" text-anchor="middle" font-weight="bold">Побітове AND: адреса вузла і маска дають адресу мережі</text><text x="20" y="112" font-family="DejaVu Sans, Arial, sans-serif" font-size="14" fill="#232120" text-anchor="start" font-weight="bold">Адреса вузла</text><text x="20" y="130" font-family="DejaVu Sans Mono, monospace" font-size="12" fill="#6b6763" text-anchor="start" font-weight="normal">172.16.9.130</text><rect x="190" y="90" width="19" height="30" fill="#dbe6f4" stroke="#b0aca8" stroke-width="1" rx="0"/><text x="199.5" y="111" font-family="DejaVu Sans Mono, monospace" font-size="14" fill="#232120" text-anchor="middle" font-weight="normal">1</text><rect x="209" y="90" width="19" height="30" fill="#dbe6f4" stroke="#b0aca8" stroke-width="1" rx="0"/><text x="218.5" y="111" font-family="DejaVu Sans Mono, monospace" font-size="14" fill="#232120" text-anchor="middle" font-weight="normal">0</text><rect x="228" y="90" width="19" height="30" fill="#dbe6f4" stroke="#b0aca8" stroke-width="1" rx="0"/><text x="237.5" y="111" font-family="DejaVu Sans Mono, monospace" font-size="14" fill="#232120" text-anchor="middle" font-weight="normal">1</text><rect x="247" y="90" width="19" height="30" fill="#dbe6f4" stroke="#b0aca8" stroke-width="1" rx="0"/><text x="256.5" y="111" font-family="DejaVu Sans Mono, monospace" font-size="14" fill="#232120" text-anchor="middle" font-weight="normal">0</text><rect x="266" y="90" width="19" height="30" fill="#dbe6f4" stroke="#b0aca8" stroke-width="1" rx="0"/><text x="275.5" y="111" font-family="DejaVu Sans Mono, monospace" font-size="14" fill="#232120" text-anchor="middle" font-weight="normal">1</text><rect x="285" y="90" width="19" height="30" fill="#dbe6f4" stroke="#b0aca8" stroke-width="1" rx="0"/><text x="294.5" y="111" font-family="DejaVu Sans Mono, monospace" font-size="14" fill="#232120" text-anchor="middle" font-weight="normal">1</text><rect x="304" y="90" width="19" height="30" fill="#dbe6f4" stroke="#b0aca8" stroke-width="1" rx="0"/><text x="313.5" y="111" font-family="DejaVu Sans Mono, monospace" font-size="14" fill="#232120" text-anchor="middle" font-weight="normal">0</text><rect x="323" y="90" width="19" height="30" fill="#dbe6f4" stroke="#b0aca8" stroke-width="1" rx="0"/><text x="332.5" y="111" font-family="DejaVu Sans Mono, monospace" font-size="14" fill="#232120" text-anchor="middle" font-weight="normal">0</text><rect x="356" y="90" width="19" height="30" fill="#dbe6f4" stroke="#b0aca8" stroke-width="1" rx="0"/><text x="365.5" y="111" font-family="DejaVu Sans Mono, monospace" font-size="14" fill="#232120" text-anchor="middle" font-weight="normal">0</text><rect x="375" y="90" width="19" height="30" fill="#dbe6f4" stroke="#b0aca8" stroke-width="1" rx="0"/><text x="384.5" y="111" font-family="DejaVu Sans Mono, monospace" font-size="14" fill="#232120" text-anchor="middle" font-weight="normal">0</text><rect x="394" y="90" width="19" height="30" fill="#dbe6f4" stroke="#b0aca8" stroke-width="1" rx="0"/><text x="403.5" y="111" font-family="DejaVu Sans Mono, monospace" font-size="14" fill="#232120" text-anchor="middle" font-weight="normal">0</text><rect x="413" y="90" width="19" height="30" fill="#dbe6f4" stroke="#b0aca8" stroke-width="1" rx="0"/><text x="422.5" y="111" font-family="DejaVu Sans Mono, monospace" font-size="14" fill="#232120" text-anchor="middle" font-weight="normal">1</text><rect x="432" y="90" width="19" height="30" fill="#dbe6f4" stroke="#b0aca8" stroke-width="1" rx="0"/><text x="441.5" y="111" font-family="DejaVu Sans Mono, monospace" font-size="14" fill="#232120" text-anchor="middle" font-weight="normal">0</text><rect x="451" y="90" width="19" height="30" fill="#dbe6f4" stroke="#b0aca8" stroke-width="1" rx="0"/><text x="460.5" y="111" font-family="DejaVu Sans Mono, monospace" font-size="14" fill="#232120" text-anchor="middle" font-weight="normal">0</text><rect x="470" y="90" width="19" height="30" fill="#dbe6f4" stroke="#b0aca8" stroke-width="1" rx="0"/><text x="479.5" y="111" font-family="DejaVu Sans Mono, monospace" font-size="14" fill="#232120" text-anchor="middle" font-weight="normal">0</text><rect x="489" y="90" width="19" height="30" fill="#dbe6f4" stroke="#b0aca8" stroke-width="1" rx="0"/><text x="498.5" y="111" font-family="DejaVu Sans Mono, monospace" font-size="14" fill="#232120" text-anchor="middle" font-weight="normal">0</text><rect x="522" y="90" width="19" height="30" fill="#dbe6f4" stroke="#b0aca8" stroke-width="1" rx="0"/><text x="531.5" y="111" font-family="DejaVu Sans Mono, monospace" font-size="14" fill="#232120" text-anchor="middle" font-weight="normal">0</text><rect x="541" y="90" width="19" height="30" fill="#dbe6f4" stroke="#b0aca8" stroke-width="1" rx="0"/><text x="550.5" y="111" font-family="DejaVu Sans Mono, monospace" font-size="14" fill="#232120" text-anchor="middle" font-weight="normal">0</text><rect x="560" y="90" width="19" height="30" fill="#dbe6f4" stroke="#b0aca8" stroke-width="1" rx="0"/><text x="569.5" y="111" font-family="DejaVu Sans Mono, monospace" font-size="14" fill="#232120" text-anchor="middle" font-weight="normal">0</text><rect x="579" y="90" width="19" height="30" fill="#dbe6f4" stroke="#b0aca8" stroke-width="1" rx="0"/><text x="588.5" y="111" font-family="DejaVu Sans Mono, monospace" font-size="14" fill="#232120" text-anchor="middle" font-weight="normal">0</text><rect x="598" y="90" width="19" height="30" fill="#dbe6f4" stroke="#b0aca8" stroke-width="1" rx="0"/><text x="607.5" y="111" font-family="DejaVu Sans Mono, monospace" font-size="14" fill="#232120" text-anchor="middle" font-weight="normal">1</text><rect x="617" y="90" width="19" height="30" fill="#dbe6f4" stroke="#b0aca8" stroke-width="1" rx="0"/><text x="626.5" y="111" font-family="DejaVu Sans Mono, monospace" font-size="14" fill="#232120" text-anchor="middle" font-weight="normal">0</text><rect x="636" y="90" width="19" height="30" fill="#dbe6f4" stroke="#b0aca8" stroke-width="1" rx="0"/><text x="645.5" y="111" font-family="DejaVu Sans Mono, monospace" font-size="14" fill="#232120" text-anchor="middle" font-weight="normal">0</text><rect x="655" y="90" width="19" height="30" fill="#dbe6f4" stroke="#b0aca8" stroke-width="1" rx="0"/><text x="664.5" y="111" font-family="DejaVu Sans Mono, monospace" font-size="14" fill="#232120" text-anchor="middle" font-weight="normal">1</text><rect x="688" y="90" width="19" height="30" fill="#dbe6f4" stroke="#b0aca8" stroke-width="1" rx="0"/><text x="697.5" y="111" font-family="DejaVu Sans Mono, monospace" font-size="14" fill="#232120" text-anchor="middle" font-weight="normal">1</text><rect x="707" y="90" width="19" height="30" fill="#dbe6f4" stroke="#b0aca8" stroke-width="1" rx="0"/><text x="716.5" y="111" font-family="DejaVu Sans Mono, monospace" font-size="14" fill="#232120" text-anchor="middle" font-weight="normal">0</text><rect x="726" y="90" width="19" height="30" fill="#fbe9d7" stroke="#b0aca8" stroke-width="1" rx="0"/><text x="735.5" y="111" font-family="DejaVu Sans Mono, monospace" font-size="14" fill="#232120" text-anchor="middle" font-weight="normal">0</text><rect x="745" y="90" width="19" height="30" fill="#fbe9d7" stroke="#b0aca8" stroke-width="1" rx="0"/><text x="754.5" y="111" font-family="DejaVu Sans Mono, monospace" font-size="14" fill="#232120" text-anchor="middle" font-weight="normal">0</text><rect x="764" y="90" width="19" height="30" fill="#fbe9d7" stroke="#b0aca8" stroke-width="1" rx="0"/><text x="773.5" y="111" font-family="DejaVu Sans Mono, monospace" font-size="14" fill="#232120" text-anchor="middle" font-weight="normal">0</text><rect x="783" y="90" width="19" height="30" fill="#fbe9d7" stroke="#b0aca8" stroke-width="1" rx="0"/><text x="792.5" y="111" font-family="DejaVu Sans Mono, monospace" font-size="14" fill="#232120" text-anchor="middle" font-weight="normal">0</text><rect x="802" y="90" width="19" height="30" fill="#fbe9d7" stroke="#b0aca8" stroke-width="1" rx="0"/><text x="811.5" y="111" font-family="DejaVu Sans Mono, monospace" font-size="14" fill="#232120" text-anchor="middle" font-weight="normal">1</text><rect x="821" y="90" width="19" height="30" fill="#fbe9d7" stroke="#b0aca8" stroke-width="1" rx="0"/><text x="830.5" y="111" font-family="DejaVu Sans Mono, monospace" font-size="14" fill="#232120" text-anchor="middle" font-weight="normal">0</text><text x="20" y="190" font-family="DejaVu Sans, Arial, sans-serif" font-size="14" fill="#204a80" text-anchor="start" font-weight="bold">Маска /26</text><text x="20" y="208" font-family="DejaVu Sans Mono, monospace" font-size="12" fill="#6b6763" text-anchor="start" font-weight="normal">255.255.255.192</text><rect x="190" y="168" width="19" height="30" fill="#dbe6f4" stroke="#b0aca8" stroke-width="1" rx="0"/><text x="199.5" y="189" font-family="DejaVu Sans Mono, monospace" font-size="14" fill="#232120" text-anchor="middle" font-weight="normal">1</text><rect x="209" y="168" width="19" height="30" fill="#dbe6f4" stroke="#b0aca8" stroke-width="1" rx="0"/><text x="218.5" y="189" font-family="DejaVu Sans Mono, monospace" font-size="14" fill="#232120" text-anchor="middle" font-weight="normal">1</text><rect x="228" y="168" width="19" height="30" fill="#dbe6f4" stroke="#b0aca8" stroke-width="1" rx="0"/><text x="237.5" y="189" font-family="DejaVu Sans Mono, monospace" font-size="14" fill="#232120" text-anchor="middle" font-weight="normal">1</text><rect x="247" y="168" width="19" height="30" fill="#dbe6f4" stroke="#b0aca8" stroke-width="1" rx="0"/><text x="256.5" y="189" font-family="DejaVu Sans Mono, monospace" font-size="14" fill="#232120" text-anchor="middle" font-weight="normal">1</text><rect x="266" y="168" width="19" height="30" fill="#dbe6f4" stroke="#b0aca8" stroke-width="1" rx="0"/><text x="275.5" y="189" font-family="DejaVu Sans Mono, monospace" font-size="14" fill="#232120" text-anchor="middle" font-weight="normal">1</text><rect x="285" y="168" width="19" height="30" fill="#dbe6f4" stroke="#b0aca8" stroke-width="1" rx="0"/><text x="294.5" y="189" font-family="DejaVu Sans Mono, monospace" font-size="14" fill="#232120" text-anchor="middle" font-weight="normal">1</text><rect x="304" y="168" width="19" height="30" fill="#dbe6f4" stroke="#b0aca8" stroke-width="1" rx="0"/><text x="313.5" y="189" font-family="DejaVu Sans Mono, monospace" font-size="14" fill="#232120" text-anchor="middle" font-weight="normal">1</text><rect x="323" y="168" width="19" height="30" fill="#dbe6f4" stroke="#b0aca8" stroke-width="1" rx="0"/><text x="332.5" y="189" font-family="DejaVu Sans Mono, monospace" font-size="14" fill="#232120" text-anchor="middle" font-weight="normal">1</text><rect x="356" y="168" width="19" height="30" fill="#dbe6f4" stroke="#b0aca8" stroke-width="1" rx="0"/><text x="365.5" y="189" font-family="DejaVu Sans Mono, monospace" font-size="14" fill="#232120" text-anchor="middle" font-weight="normal">1</text><rect x="375" y="168" width="19" height="30" fill="#dbe6f4" stroke="#b0aca8" stroke-width="1" rx="0"/><text x="384.5" y="189" font-family="DejaVu Sans Mono, monospace" font-size="14" fill="#232120" text-anchor="middle" font-weight="normal">1</text><rect x="394" y="168" width="19" height="30" fill="#dbe6f4" stroke="#b0aca8" stroke-width="1" rx="0"/><text x="403.5" y="189" font-family="DejaVu Sans Mono, monospace" font-size="14" fill="#232120" text-anchor="middle" font-weight="normal">1</text><rect x="413" y="168" width="19" height="30" fill="#dbe6f4" stroke="#b0aca8" stroke-width="1" rx="0"/><text x="422.5" y="189" font-family="DejaVu Sans Mono, monospace" font-size="14" fill="#232120" text-anchor="middle" font-weight="normal">1</text><rect x="432" y="168" width="19" height="30" fill="#dbe6f4" stroke="#b0aca8" stroke-width="1" rx="0"/><text x="441.5" y="189" font-family="DejaVu Sans Mono, monospace" font-size="14" fill="#232120" text-anchor="middle" font-weight="normal">1</text><rect x="451" y="168" width="19" height="30" fill="#dbe6f4" stroke="#b0aca8" stroke-width="1" rx="0"/><text x="460.5" y="189" font-family="DejaVu Sans Mono, monospace" font-size="14" fill="#232120" text-anchor="middle" font-weight="normal">1</text><rect x="470" y="168" width="19" height="30" fill="#dbe6f4" stroke="#b0aca8" stroke-width="1" rx="0"/><text x="479.5" y="189" font-family="DejaVu Sans Mono, monospace" font-size="14" fill="#232120" text-anchor="middle" font-weight="normal">1</text><rect x="489" y="168" width="19" height="30" fill="#dbe6f4" stroke="#b0aca8" stroke-width="1" rx="0"/><text x="498.5" y="189" font-family="DejaVu Sans Mono, monospace" font-size="14" fill="#232120" text-anchor="middle" font-weight="normal">1</text><rect x="522" y="168" width="19" height="30" fill="#dbe6f4" stroke="#b0aca8" stroke-width="1" rx="0"/><text x="531.5" y="189" font-family="DejaVu Sans Mono, monospace" font-size="14" fill="#232120" text-anchor="middle" font-weight="normal">1</text><rect x="541" y="168" width="19" height="30" fill="#dbe6f4" stroke="#b0aca8" stroke-width="1" rx="0"/><text x="550.5" y="189" font-family="DejaVu Sans Mono, monospace" font-size="14" fill="#232120" text-anchor="middle" font-weight="normal">1</text><rect x="560" y="168" width="19" height="30" fill="#dbe6f4" stroke="#b0aca8" stroke-width="1" rx="0"/><text x="569.5" y="189" font-family="DejaVu Sans Mono, monospace" font-size="14" fill="#232120" text-anchor="middle" font-weight="normal">1</text><rect x="579" y="168" width="19" height="30" fill="#dbe6f4" stroke="#b0aca8" stroke-width="1" rx="0"/><text x="588.5" y="189" font-family="DejaVu Sans Mono, monospace" font-size="14" fill="#232120" text-anchor="middle" font-weight="normal">1</text><rect x="598" y="168" width="19" height="30" fill="#dbe6f4" stroke="#b0aca8" stroke-width="1" rx="0"/><text x="607.5" y="189" font-family="DejaVu Sans Mono, monospace" font-size="14" fill="#232120" text-anchor="middle" font-weight="normal">1</text><rect x="617" y="168" width="19" height="30" fill="#dbe6f4" stroke="#b0aca8" stroke-width="1" rx="0"/><text x="626.5" y="189" font-family="DejaVu Sans Mono, monospace" font-size="14" fill="#232120" text-anchor="middle" font-weight="normal">1</text><rect x="636" y="168" width="19" height="30" fill="#dbe6f4" stroke="#b0aca8" stroke-width="1" rx="0"/><text x="645.5" y="189" font-family="DejaVu Sans Mono, monospace" font-size="14" fill="#232120" text-anchor="middle" font-weight="normal">1</text><rect x="655" y="168" width="19" height="30" fill="#dbe6f4" stroke="#b0aca8" stroke-width="1" rx="0"/><text x="664.5" y="189" font-family="DejaVu Sans Mono, monospace" font-size="14" fill="#232120" text-anchor="middle" font-weight="normal">1</text><rect x="688" y="168" width="19" height="30" fill="#dbe6f4" stroke="#b0aca8" stroke-width="1" rx="0"/><text x="697.5" y="189" font-family="DejaVu Sans Mono, monospace" font-size="14" fill="#232120" text-anchor="middle" font-weight="normal">1</text><rect x="707" y="168" width="19" height="30" fill="#dbe6f4" stroke="#b0aca8" stroke-width="1" rx="0"/><text x="716.5" y="189" font-family="DejaVu Sans Mono, monospace" font-size="14" fill="#232120" text-anchor="middle" font-weight="normal">1</text><rect x="726" y="168" width="19" height="30" fill="#fbe9d7" stroke="#b0aca8" stroke-width="1" rx="0"/><text x="735.5" y="189" font-family="DejaVu Sans Mono, monospace" font-size="14" fill="#232120" text-anchor="middle" font-weight="normal">0</text><rect x="745" y="168" width="19" height="30" fill="#fbe9d7" stroke="#b0aca8" stroke-width="1" rx="0"/><text x="754.5" y="189" font-family="DejaVu Sans Mono, monospace" font-size="14" fill="#232120" text-anchor="middle" font-weight="normal">0</text><rect x="764" y="168" width="19" height="30" fill="#fbe9d7" stroke="#b0aca8" stroke-width="1" rx="0"/><text x="773.5" y="189" font-family="DejaVu Sans Mono, monospace" font-size="14" fill="#232120" text-anchor="middle" font-weight="normal">0</text><rect x="783" y="168" width="19" height="30" fill="#fbe9d7" stroke="#b0aca8" stroke-width="1" rx="0"/><text x="792.5" y="189" font-family="DejaVu Sans Mono, monospace" font-size="14" fill="#232120" text-anchor="middle" font-weight="normal">0</text><rect x="802" y="168" width="19" height="30" fill="#fbe9d7" stroke="#b0aca8" stroke-width="1" rx="0"/><text x="811.5" y="189" font-family="DejaVu Sans Mono, monospace" font-size="14" fill="#232120" text-anchor="middle" font-weight="normal">0</text><rect x="821" y="168" width="19" height="30" fill="#fbe9d7" stroke="#b0aca8" stroke-width="1" rx="0"/><text x="830.5" y="189" font-family="DejaVu Sans Mono, monospace" font-size="14" fill="#232120" text-anchor="middle" font-weight="normal">0</text><text x="20" y="268" font-family="DejaVu Sans, Arial, sans-serif" font-size="14" fill="#2e7d4f" text-anchor="start" font-weight="bold">Адреса мережі</text><text x="20" y="286" font-family="DejaVu Sans Mono, monospace" font-size="12" fill="#6b6763" text-anchor="start" font-weight="normal">172.16.9.128</text><rect x="190" y="246" width="19" height="30" fill="#dcefe3" stroke="#b0aca8" stroke-width="1" rx="0"/><text x="199.5" y="267" font-family="DejaVu Sans Mono, monospace" font-size="14" fill="#232120" text-anchor="middle" font-weight="normal">1</text><rect x="209" y="246" width="19" height="30" fill="#dcefe3" stroke="#b0aca8" stroke-width="1" rx="0"/><text x="218.5" y="267" font-family="DejaVu Sans Mono, monospace" font-size="14" fill="#232120" text-anchor="middle" font-weight="normal">0</text><rect x="228" y="246" width="19" height="30" fill="#dcefe3" stroke="#b0aca8" stroke-width="1" rx="0"/><text x="237.5" y="267" font-family="DejaVu Sans Mono, monospace" font-size="14" fill="#232120" text-anchor="middle" font-weight="normal">1</text><rect x="247" y="246" width="19" height="30" fill="#dcefe3" stroke="#b0aca8" stroke-width="1" rx="0"/><text x="256.5" y="267" font-family="DejaVu Sans Mono, monospace" font-size="14" fill="#232120" text-anchor="middle" font-weight="normal">0</text><rect x="266" y="246" width="19" height="30" fill="#dcefe3" stroke="#b0aca8" stroke-width="1" rx="0"/><text x="275.5" y="267" font-family="DejaVu Sans Mono, monospace" font-size="14" fill="#232120" text-anchor="middle" font-weight="normal">1</text><rect x="285" y="246" width="19" height="30" fill="#dcefe3" stroke="#b0aca8" stroke-width="1" rx="0"/><text x="294.5" y="267" font-family="DejaVu Sans Mono, monospace" font-size="14" fill="#232120" text-anchor="middle" font-weight="normal">1</text><rect x="304" y="246" width="19" height="30" fill="#dcefe3" stroke="#b0aca8" stroke-width="1" rx="0"/><text x="313.5" y="267" font-family="DejaVu Sans Mono, monospace" font-size="14" fill="#232120" text-anchor="middle" font-weight="normal">0</text><rect x="323" y="246" width="19" height="30" fill="#dcefe3" stroke="#b0aca8" stroke-width="1" rx="0"/><text x="332.5" y="267" font-family="DejaVu Sans Mono, monospace" font-size="14" fill="#232120" text-anchor="middle" font-weight="normal">0</text><rect x="356" y="246" width="19" height="30" fill="#dcefe3" stroke="#b0aca8" stroke-width="1" rx="0"/><text x="365.5" y="267" font-family="DejaVu Sans Mono, monospace" font-size="14" fill="#232120" text-anchor="middle" font-weight="normal">0</text><rect x="375" y="246" width="19" height="30" fill="#dcefe3" stroke="#b0aca8" stroke-width="1" rx="0"/><text x="384.5" y="267" font-family="DejaVu Sans Mono, monospace" font-size="14" fill="#232120" text-anchor="middle" font-weight="normal">0</text><rect x="394" y="246" width="19" height="30" fill="#dcefe3" stroke="#b0aca8" stroke-width="1" rx="0"/><text x="403.5" y="267" font-family="DejaVu Sans Mono, monospace" font-size="14" fill="#232120" text-anchor="middle" font-weight="normal">0</text><rect x="413" y="246" width="19" height="30" fill="#dcefe3" stroke="#b0aca8" stroke-width="1" rx="0"/><text x="422.5" y="267" font-family="DejaVu Sans Mono, monospace" font-size="14" fill="#232120" text-anchor="middle" font-weight="normal">1</text><rect x="432" y="246" width="19" height="30" fill="#dcefe3" stroke="#b0aca8" stroke-width="1" rx="0"/><text x="441.5" y="267" font-family="DejaVu Sans Mono, monospace" font-size="14" fill="#232120" text-anchor="middle" font-weight="normal">0</text><rect x="451" y="246" width="19" height="30" fill="#dcefe3" stroke="#b0aca8" stroke-width="1" rx="0"/><text x="460.5" y="267" font-family="DejaVu Sans Mono, monospace" font-size="14" fill="#232120" text-anchor="middle" font-weight="normal">0</text><rect x="470" y="246" width="19" height="30" fill="#dcefe3" stroke="#b0aca8" stroke-width="1" rx="0"/><text x="479.5" y="267" font-family="DejaVu Sans Mono, monospace" font-size="14" fill="#232120" text-anchor="middle" font-weight="normal">0</text><rect x="489" y="246" width="19" height="30" fill="#dcefe3" stroke="#b0aca8" stroke-width="1" rx="0"/><text x="498.5" y="267" font-family="DejaVu Sans Mono, monospace" font-size="14" fill="#232120" text-anchor="middle" font-weight="normal">0</text><rect x="522" y="246" width="19" height="30" fill="#dcefe3" stroke="#b0aca8" stroke-width="1" rx="0"/><text x="531.5" y="267" font-family="DejaVu Sans Mono, monospace" font-size="14" fill="#232120" text-anchor="middle" font-weight="normal">0</text><rect x="541" y="246" width="19" height="30" fill="#dcefe3" stroke="#b0aca8" stroke-width="1" rx="0"/><text x="550.5" y="267" font-family="DejaVu Sans Mono, monospace" font-size="14" fill="#232120" text-anchor="middle" font-weight="normal">0</text><rect x="560" y="246" width="19" height="30" fill="#dcefe3" stroke="#b0aca8" stroke-width="1" rx="0"/><text x="569.5" y="267" font-family="DejaVu Sans Mono, monospace" font-size="14" fill="#232120" text-anchor="middle" font-weight="normal">0</text><rect x="579" y="246" width="19" height="30" fill="#dcefe3" stroke="#b0aca8" stroke-width="1" rx="0"/><text x="588.5" y="267" font-family="DejaVu Sans Mono, monospace" font-size="14" fill="#232120" text-anchor="middle" font-weight="normal">0</text><rect x="598" y="246" width="19" height="30" fill="#dcefe3" stroke="#b0aca8" stroke-width="1" rx="0"/><text x="607.5" y="267" font-family="DejaVu Sans Mono, monospace" font-size="14" fill="#232120" text-anchor="middle" font-weight="normal">1</text><rect x="617" y="246" width="19" height="30" fill="#dcefe3" stroke="#b0aca8" stroke-width="1" rx="0"/><text x="626.5" y="267" font-family="DejaVu Sans Mono, monospace" font-size="14" fill="#232120" text-anchor="middle" font-weight="normal">0</text><rect x="636" y="246" width="19" height="30" fill="#dcefe3" stroke="#b0aca8" stroke-width="1" rx="0"/><text x="645.5" y="267" font-family="DejaVu Sans Mono, monospace" font-size="14" fill="#232120" text-anchor="middle" font-weight="normal">0</text><rect x="655" y="246" width="19" height="30" fill="#dcefe3" stroke="#b0aca8" stroke-width="1" rx="0"/><text x="664.5" y="267" font-family="DejaVu Sans Mono, monospace" font-size="14" fill="#232120" text-anchor="middle" font-weight="normal">1</text><rect x="688" y="246" width="19" height="30" fill="#dcefe3" stroke="#b0aca8" stroke-width="1" rx="0"/><text x="697.5" y="267" font-family="DejaVu Sans Mono, monospace" font-size="14" fill="#232120" text-anchor="middle" font-weight="normal">1</text><rect x="707" y="246" width="19" height="30" fill="#dcefe3" stroke="#b0aca8" stroke-width="1" rx="0"/><text x="716.5" y="267" font-family="DejaVu Sans Mono, monospace" font-size="14" fill="#232120" text-anchor="middle" font-weight="normal">0</text><rect x="726" y="246" width="19" height="30" fill="#f3f1ef" stroke="#b0aca8" stroke-width="1" rx="0"/><text x="735.5" y="267" font-family="DejaVu Sans Mono, monospace" font-size="14" fill="#232120" text-anchor="middle" font-weight="normal">0</text><rect x="745" y="246" width="19" height="30" fill="#f3f1ef" stroke="#b0aca8" stroke-width="1" rx="0"/><text x="754.5" y="267" font-family="DejaVu Sans Mono, monospace" font-size="14" fill="#232120" text-anchor="middle" font-weight="normal">0</text><rect x="764" y="246" width="19" height="30" fill="#f3f1ef" stroke="#b0aca8" stroke-width="1" rx="0"/><text x="773.5" y="267" font-family="DejaVu Sans Mono, monospace" font-size="14" fill="#232120" text-anchor="middle" font-weight="normal">0</text><rect x="783" y="246" width="19" height="30" fill="#f3f1ef" stroke="#b0aca8" stroke-width="1" rx="0"/><text x="792.5" y="267" font-family="DejaVu Sans Mono, monospace" font-size="14" fill="#232120" text-anchor="middle" font-weight="normal">0</text><rect x="802" y="246" width="19" height="30" fill="#f3f1ef" stroke="#b0aca8" stroke-width="1" rx="0"/><text x="811.5" y="267" font-family="DejaVu Sans Mono, monospace" font-size="14" fill="#232120" text-anchor="middle" font-weight="normal">0</text><rect x="821" y="246" width="19" height="30" fill="#f3f1ef" stroke="#b0aca8" stroke-width="1" rx="0"/><text x="830.5" y="267" font-family="DejaVu Sans Mono, monospace" font-size="14" fill="#232120" text-anchor="middle" font-weight="normal">0</text><line x1="190" y1="316" x2="726" y2="316" stroke="#204a80" stroke-width="2"/><text x="458.0" y="336" font-family="DejaVu Sans, Arial, sans-serif" font-size="13" fill="#204a80" text-anchor="middle" font-weight="bold">26 бітів мережі</text><line x1="730" y1="316" x2="840" y2="316" stroke="#b9631b" stroke-width="2"/><text x="785.0" y="336" font-family="DejaVu Sans, Arial, sans-serif" font-size="13" fill="#b9631b" text-anchor="middle" font-weight="bold">6 бітів вузла</text><text x="450" y="368" font-family="DejaVu Sans, Arial, sans-serif" font-size="13" fill="#6b6763" text-anchor="middle" font-weight="normal">Де в масці стоїть 1 – біт адреси зберігається, де 0 – обнуляється</text></svg>